<svg width="36" height="36" viewBox="0 0 36 36" fill="none" xmlns="http://www.w3.org/2000/svg">
<rect width="36" height="36" rx="18" fill="#FF843F"/>
<path d="M15.6665 17.4168C16.2498 17.4168 17.9998 16.473 17.9998 14.1397C17.9998 10.5119 14.788 9.8335 11.1702 9.8335C10.4865 9.8335 8.40225 9.83466 6.9165 9.83408C5.94992 9.8335 5.1665 10.6175 5.1665 11.5841V24.4168C5.1665 25.3834 5.94992 26.1668 6.9165 26.1668H13.7998C16.3776 26.1668 18.5628 24.1275 18.5832 21.5497C18.6106 18.0054 15.6665 17.4168 15.6665 17.4168ZM8.6665 12.7502H12.7498C13.7164 12.7502 14.4998 13.5336 14.4998 14.5002C14.4998 15.4667 13.7164 16.2502 12.7498 16.2502H8.6665V12.7502ZM13.0415 23.2502H8.6665V19.1668H13.0415C14.1691 19.1668 15.0832 20.0809 15.0832 21.2085C15.0832 22.3361 14.1691 23.2502 13.0415 23.2502ZM30.5473 20.9168C31.0309 20.9168 31.4223 20.5254 31.4229 20.0418C31.4229 16.6591 29.0832 13.9168 25.5896 13.9168C22.3678 13.9168 19.7563 16.6591 19.7563 20.0418C19.7563 23.4246 22.3678 26.1668 25.5896 26.1668C28.4403 26.1668 30.0241 24.8333 30.7976 22.8751C30.9469 22.4977 30.6541 22.0887 30.2481 22.0887H28.8475C28.6346 22.0887 28.4462 22.2095 28.3359 22.3921C27.8028 23.2729 26.989 23.8335 25.8935 23.8335C24.2532 23.8335 23.0585 22.5881 22.754 20.9168H29.0085H30.5473ZM25.5896 16.2502C26.8012 16.2502 27.9754 17.2162 28.3068 18.5835H22.8975C23.3368 17.2132 24.3763 16.2502 25.5896 16.2502ZM28.2082 12.7502H23.5415C23.0585 12.7502 22.6665 12.3582 22.6665 11.8752C22.6665 11.3922 23.0585 11.0002 23.5415 11.0002H28.2082C28.6912 11.0002 29.0832 11.3922 29.0832 11.8752C29.0832 12.3582 28.6912 12.7502 28.2082 12.7502Z" fill="#FFECE1"/>
</svg>
