<svg width="36" height="36" viewBox="0 0 36 36" fill="none" xmlns="http://www.w3.org/2000/svg">
<rect width="36" height="36" rx="18" fill="#FF843F"/>
<path d="M17.9999 8.3999C12.6983 8.3999 8.3999 12.6983 8.3999 17.9999C8.3999 22.4983 11.4975 26.2623 15.6735 27.3039C15.6287 27.1743 15.5999 27.0239 15.5999 26.8375V25.1967C15.2103 25.1967 14.5575 25.1967 14.3935 25.1967C13.7367 25.1967 13.1527 24.9143 12.8695 24.3895C12.5551 23.8063 12.5007 22.9143 11.7215 22.3687C11.4903 22.1871 11.6663 21.9799 11.9327 22.0079C12.4247 22.1471 12.8327 22.4847 13.2167 22.9855C13.5991 23.4871 13.7791 23.6007 14.4935 23.6007C14.8399 23.6007 15.3583 23.5807 15.8463 23.5039C16.1087 22.8375 16.5623 22.2239 17.1167 21.9343C13.9199 21.6055 12.3943 20.0151 12.3943 17.8559C12.3943 16.9263 12.7903 16.0271 13.4631 15.2695C13.2423 14.5175 12.9647 12.9839 13.5479 12.3999C14.9863 12.3999 15.8559 13.3327 16.0647 13.5847C16.7815 13.3391 17.5687 13.1999 18.3959 13.1999C19.2247 13.1999 20.0151 13.3391 20.7335 13.5863C20.9399 13.3359 21.8103 12.3999 23.2519 12.3999C23.8375 12.9847 23.5567 14.5247 23.3335 15.2751C24.0023 16.0311 24.3959 16.9279 24.3959 17.8559C24.3959 20.0135 22.8727 21.6031 19.6807 21.9335C20.5591 22.3919 21.1999 23.6799 21.1999 24.6503V26.8375C21.1999 26.9207 21.1815 26.9807 21.1719 27.0519C24.9127 25.7407 27.5999 22.1887 27.5999 17.9999C27.5999 12.6983 23.3015 8.3999 17.9999 8.3999Z" fill="#FFECE1"/>
</svg>
