<svg width="36" height="36" viewBox="0 0 36 36" fill="none" xmlns="http://www.w3.org/2000/svg">
<rect width="36" height="36" rx="18" fill="#FF843F"/>
<path d="M13.2002 25.9999H9.2002V13.9999H13.2002V25.9999ZM11.201 12.3999C10.0946 12.3999 9.2002 11.5031 9.2002 10.3991C9.2002 9.2951 10.0962 8.3999 11.201 8.3999C12.3034 8.3999 13.2002 9.2967 13.2002 10.3991C13.2002 11.5031 12.3034 12.3999 11.201 12.3999ZM27.6002 25.9999H23.7546V20.1599C23.7546 18.7671 23.7282 16.9759 21.7554 16.9759C19.753 16.9759 19.445 18.4927 19.445 20.0591V25.9999H15.6002V13.9911H19.2914V15.6319H19.3434C19.857 14.6879 21.1122 13.6927 22.9842 13.6927C26.8802 13.6927 27.6002 16.1799 27.6002 19.4135V25.9999Z" fill="#FFECE1"/>
</svg>
