<svg width="36" height="36" viewBox="0 0 36 36" fill="none" xmlns="http://www.w3.org/2000/svg">
<rect width="36" height="36" rx="18" fill="#FF843F"/>
<path d="M28.3999 11.5496C27.6343 11.8896 26.8119 12.1184 25.9487 12.2216C26.8303 11.6936 27.5063 10.8576 27.8247 9.86083C27.0007 10.3496 26.0871 10.7048 25.1143 10.8968C24.3359 10.0672 23.2271 9.54883 21.9999 9.54883C19.6431 9.54883 17.7327 11.46 17.7327 13.816C17.7327 14.1504 17.7711 14.4768 17.8431 14.788C14.2967 14.6104 11.1527 12.9112 9.04712 10.3288C8.68072 10.9592 8.47032 11.692 8.47032 12.4752C8.47032 13.9552 9.22312 15.2616 10.3679 16.0264C9.66872 16.004 9.01032 15.812 8.43512 15.4928C8.43512 15.5112 8.43512 15.528 8.43512 15.5464C8.43512 17.6144 9.90552 19.3392 11.8583 19.7304C11.5007 19.828 11.1231 19.88 10.7335 19.88C10.4591 19.88 10.1911 19.8528 9.93112 19.804C10.4743 21.4992 12.0503 22.7336 13.9175 22.768C12.4575 23.9128 10.6175 24.5952 8.61752 24.5952C8.27352 24.5952 7.93352 24.5752 7.59912 24.5352C9.48792 25.7456 11.7303 26.452 14.1407 26.452C21.9903 26.452 26.2815 19.9496 26.2815 14.3104C26.2815 14.1256 26.2775 13.9416 26.2695 13.7584C27.1039 13.156 27.8279 12.4048 28.3999 11.5496Z" fill="#FFECE1"/>
</svg>
